# xmcd
#
# Track frame offsets: 
#        150
#        10887
#        22623
#        32974
#        43776
#        55326
#        65878
#        80904
#        97751
#        118785
#        135291
#        149831
#        164429
#        176682
#        203455
#        221754
#        241749
#
# Disc length: 3405 seconds
#
# Revision: 0
# Processed by: cddbd v1.5.2PL0 Copyright (c) Steve Scherf et al.
# Submitted via: ExactAudioCopy v1.3
#
DISCID=ef0d4b11
DTITLE=Dr. John - The Mojo Of Dr. John [CD1 - The Early Years)
DYEAR=2019
DGENRE=Blues
TTITLE0=Foolish Little Girl (as Mac Rebennack)
TTITLE1=Good Times (as Mac Rebennack)
TTITLE2=Sahara (as Mac Rebennack)
TTITLE3=Feedbag (as Mac Rebennack)
TTITLE4=South Of The Border Town (as Mac Rebennack)
TTITLE5=The Honeydripper (part 2) (as Mac Rebennack)
TTITLE6=Storm Warning (Long Version) (as Mac Rebennack)
TTITLE7=The Time Had Come (as Mac Rebennack)
TTITLE8=Woman (as Mac Rebennack)
TTITLE9=Which Way (as Mac Rebennack)
TTITLE10=A Little Closer To My Home (as Mac Rebennack)
TTITLE11=Make Your Own (as Mac Rebennack)
TTITLE12=You Said It (as Mac Rebennack)
TTITLE13=Bring Your Own Along (as Mac Rebennack)
TTITLE14=Somebody Tryin' To Hoodoo Me (as Mac Rebennack)
TTITLE15=Don' Want No Monkey In My Business (as Mac Rebennack)
TTITLE16=I Pulled The Cover Off You Two Lovers (as Mac Rebennack)
EXTD=
EXTT0=
EXTT1=
EXTT2=
EXTT3=
EXTT4=
EXTT5=
EXTT6=
EXTT7=
EXTT8=
EXTT9=
EXTT10=
EXTT11=
EXTT12=
EXTT13=
EXTT14=
EXTT15=
EXTT16=
PLAYORDER=
